{"asset":{"version":"2.0","generator":"Blockbench 4.12.2 glTF exporter"},"scenes":[{"nodes":[9],"name":"blockbench_export"}],"scene":0,"nodes":[{"translation":[0,-0.75,0],"name":"bone"},{"translation":[0.14999999999999997,0.875,0],"name":"LegRight","children":[0]},{"translation":[0,-0.75,0],"name":"bone2"},{"translation":[-0.14999999999999997,0.875,0],"name":"LegLeft","children":[2]},{"name":"ArmRight"},{"name":"ArmLeft"},{"name":"Head"},{"name":"Torso","children":[1,3,4,5,6]},{"name":"Fella","children":[7]},{"name":"Fella","mesh":0,"children":[8],"skin":0}],"bufferViews":[{"buffer":0,"byteOffset":0,"byteLength":29376,"target":34962,"byteStride":12},{"buffer":0,"byteOffset":29376,"byteLength":29376,"target":34962,"byteStride":12},{"buffer":0,"byteOffset":58752,"byteLength":19584,"target":34962,"byteStride":8},{"buffer":0,"byteOffset":78336,"byteLength":19584,"target":34962,"byteStride":8},{"buffer":0,"byteOffset":97920,"byteLength":39168,"target":34962,"byteStride":16},{"buffer":0,"byteOffset":137088,"byteLength":7128,"target":34963},{"buffer":0,"byteOffset":144216,"byteLength":576},{"buffer":0,"byteOffset":144792,"byteLength":12},{"buffer":0,"byteOffset":144804,"byteLength":48},{"buffer":0,"byteOffset":144852,"byteLength":12},{"buffer":0,"byteOffset":144864,"byteLength":48},{"buffer":0,"byteOffset":144912,"byteLength":12},{"buffer":0,"byteOffset":144924,"byteLength":48},{"buffer":0,"byteOffset":144972,"byteLength":12},{"buffer":0,"byteOffset":144984,"byteLength":36},{"buffer":0,"byteOffset":145020,"byteLength":12},{"buffer":0,"byteOffset":145032,"byteLength":48},{"buffer":0,"byteOffset":145080,"byteLength":12},{"buffer":0,"byteOffset":145092,"byteLength":36}],"buffers":[{"byteLength":145128,"uri":"data:application/octet-stream;base64,"}],"accessors":[{"bufferView":0,"componentType":5126,"count":2448,"max":[0.40312498807907104,1.8624999523162842,0.13124999403953552],"min":[-0.40312498807907104,-0.00660051079466939,-0.1875],"type":"VEC3"},{"bufferView":1,"componentType":5126,"count":2448,"max":[1,1,1],"min":[-1,-1,-1],"type":"VEC3"},{"bufferView":2,"componentType":5126,"count":2448,"max":[0.0520833320915699,0.10416668653488159],"min":[0,0],"type":"VEC2"},{"bufferView":3,"componentType":5123,"count":2448,"max":[0,8,0,0],"min":[0,1,0,0],"type":"VEC4"},{"bufferView":4,"componentType":5126,"count":2448,"max":[0,1,0,0],"min":[0,1,0,0],"type":"VEC4"},{"bufferView":5,"componentType":5123,"count":3564,"max":[2447],"min":[0],"type":"SCALAR"},{"bufferView":6,"componentType":5126,"count":9,"max":[1,0,0,0,0,1,0,0,0,0,1,0,0.15000000596046448,0,0,1],"min":[1,0,0,0,0,1,0,0,0,0,1,0,-0.15000000596046448,-0.875,0,1],"type":"MAT4"},{"bufferView":7,"componentType":5126,"count":3,"max":[2],"min":[0],"type":"SCALAR"},{"bufferView":8,"componentType":5126,"count":3,"max":[0.1736481785774231,0,0,0.9940563440322876],"min":[-0.10886687785387039,0,0,0.9848077297210693],"type":"VEC4"},{"bufferView":9,"componentType":5126,"count":3,"max":[2],"min":[0],"type":"SCALAR"},{"bufferView":10,"componentType":5126,"count":3,"max":[0.237685889005661,0,0,0.9713420867919922],"min":[-0.258819043636322,0,0,0.9659258127212524],"type":"VEC4"},{"bufferView":11,"componentType":5126,"count":3,"max":[2],"min":[0],"type":"SCALAR"},{"bufferView":12,"componentType":5126,"count":3,"max":[0.1736481785774231,0,0,0.9883615374565125],"min":[-0.15212339162826538,0,0,0.9848077297210693],"type":"VEC4"},{"bufferView":13,"componentType":5126,"count":3,"max":[2],"min":[0],"type":"SCALAR"},{"bufferView":14,"componentType":5126,"count":3,"max":[0,-0.8054381608963013,0.02885928750038147],"min":[0,-0.8393269181251526,-0.06287658959627151],"type":"VEC3"},{"bufferView":15,"componentType":5126,"count":3,"max":[2],"min":[0],"type":"SCALAR"},{"bufferView":16,"componentType":5126,"count":3,"max":[0.02181488461792469,0,0,0.9997619986534119],"min":[-0.15212339162826538,0,0,0.9883615374565125],"type":"VEC4"},{"bufferView":17,"componentType":5126,"count":3,"max":[2],"min":[0],"type":"SCALAR"},{"bufferView":18,"componentType":5126,"count":3,"max":[0,-0.75,0],"min":[0,-0.8236941695213318,-0.019735293462872505],"type":"VEC3"}],"materials":[{"pbrMetallicRoughness":{"metallicFactor":0,"roughnessFactor":1},"alphaMode":"MASK","alphaCutoff":0.05,"doubleSided":true}],"meshes":[{"primitives":[{"mode":4,"attributes":{"POSITION":0,"NORMAL":1,"TEXCOORD_0":2,"JOINTS_0":3,"WEIGHTS_0":4},"indices":5,"material":0}]}],"skins":[{"inverseBindMatrices":6,"joints":[8,7,1,0,3,2,4,5,6],"skeleton":8}],"animations":[{"name":"walk","samplers":[{"input":7,"output":8,"interpolation":"LINEAR"},{"input":9,"output":10,"interpolation":"LINEAR"},{"input":11,"output":12,"interpolation":"LINEAR"},{"input":13,"output":14,"interpolation":"LINEAR"},{"input":15,"output":16,"interpolation":"LINEAR"},{"input":17,"output":18,"interpolation":"LINEAR"}],"channels":[{"sampler":0,"target":{"node":3,"path":"rotation"}},{"sampler":1,"target":{"node":1,"path":"rotation"}},{"sampler":2,"target":{"node":0,"path":"rotation"}},{"sampler":3,"target":{"node":0,"path":"translation"}},{"sampler":4,"target":{"node":2,"path":"rotation"}},{"sampler":5,"target":{"node":2,"path":"translation"}}]}]}